<svg width="73" height="45" viewBox="0 0 73 45" fill="none" xmlns="http://www.w3.org/2000/svg">
<path d="M36.5013 0.889954C26.9031 0.889954 20.9043 5.68961 18.5051 15.2895C22.1046 10.4891 26.3042 8.68918 31.1033 9.88959C33.8416 10.5736 35.7986 12.5613 37.965 14.76C41.4938 18.3422 45.5784 22.4886 54.4998 22.4886C64.0978 22.4886 70.0967 17.689 72.4966 8.08906C68.8971 12.8893 64.6973 14.6892 59.8984 13.4888C57.1601 12.805 55.2033 10.8171 53.0367 8.61853C49.5073 5.03624 45.4233 0.889954 36.5013 0.889954ZM18.5051 22.4886C8.90677 22.4886 2.908 27.2882 0.508087 36.888C4.10762 32.0878 8.30663 30.2878 13.1058 31.4882C15.8445 32.1735 17.8009 34.16 19.9673 36.3587C23.4961 39.9408 27.5814 44.0871 36.5021 44.0871C46.101 44.0871 52.0997 39.2875 54.4998 29.6876C50.9003 34.488 46.7005 36.288 41.9014 35.0874C39.1633 34.4036 37.2063 32.4158 35.0397 30.2178C31.5111 26.635 27.4263 22.4886 18.5051 22.4886Z" fill="#38BDF8"/>
</svg>
