<svg width="57" height="57" viewBox="0 0 57 57" fill="none" xmlns="http://www.w3.org/2000/svg">
<g clip-path="url(#clip0_2_773)">
<mask id="mask0_2_773" style="mask-type:luminance" maskUnits="userSpaceOnUse" x="0" y="0" width="57" height="57">
<path d="M56.5 0.5H0.5V56.5H56.5V0.5Z" fill="white"/>
</mask>
<g mask="url(#mask0_2_773)">
<path d="M51.0312 0.5H5.96875C2.94845 0.5 0.5 2.94845 0.5 5.96875V51.0312C0.5 54.0515 2.94845 56.5 5.96875 56.5H51.0312C54.0515 56.5 56.5 54.0515 56.5 51.0312V5.96875C56.5 2.94845 54.0515 0.5 51.0312 0.5Z" fill="#3178C6"/>
<path d="M51.0312 0.5H5.96875C2.94845 0.5 0.5 2.94845 0.5 5.96875V51.0312C0.5 54.0515 2.94845 56.5 5.96875 56.5H51.0312C54.0515 56.5 56.5 54.0515 56.5 51.0312V5.96875C56.5 2.94845 54.0515 0.5 51.0312 0.5Z" fill="#3178C6"/>
<path fill-rule="evenodd" clip-rule="evenodd" d="M35.1651 45.062V50.5375C36.0553 50.9937 37.108 51.3359 38.3233 51.564C39.5387 51.7921 40.8196 51.9063 42.1662 51.9063C43.4787 51.9063 44.7253 51.7809 45.9065 51.5298C47.0877 51.279 48.1233 50.8653 49.0134 50.2892C49.9036 49.7134 50.6082 48.9604 51.1274 48.0308C51.6467 47.101 51.9063 45.9519 51.9063 44.583C51.9063 43.5905 51.7579 42.7207 51.4611 41.9736C51.1645 41.2264 50.7367 40.562 50.1774 39.9802C49.6182 39.3986 48.9478 38.8764 48.1661 38.4144C47.3843 37.9524 46.5029 37.5162 45.5214 37.1057C44.8025 36.8089 44.1576 36.5211 43.5872 36.2417C43.0165 35.962 42.5316 35.6768 42.1321 35.386C41.7326 35.0951 41.4244 34.7871 41.2077 34.462C40.991 34.1368 40.8825 33.7691 40.8825 33.3584C40.8825 32.9821 40.9794 32.6425 41.1736 32.3403C41.3675 32.0379 41.6413 31.7784 41.9951 31.5617C42.349 31.345 42.7824 31.1768 43.2959 31.057C43.8097 30.9371 44.3801 30.8774 45.0079 30.8774C45.4643 30.8774 45.9464 30.9116 46.4542 30.9801C46.9621 31.0484 47.4728 31.154 47.9863 31.2965C48.4998 31.4391 48.999 31.6188 49.4841 31.8356C49.9691 32.0523 50.4171 32.3032 50.8278 32.5884V27.4724C49.9949 27.153 49.0847 26.9163 48.0976 26.7623C47.1105 26.6083 45.9778 26.5312 44.6997 26.5312C43.3988 26.5312 42.1662 26.6711 41.0024 26.9505C39.8383 27.2299 38.8141 27.6662 37.9297 28.2594C37.0452 28.8526 36.3464 29.6083 35.8328 30.5267C35.3193 31.4449 35.0625 32.5427 35.0625 33.8204C35.0625 35.4515 35.5332 36.8433 36.4748 37.9954C37.4161 39.1475 38.8454 40.1228 40.7627 40.9214C41.5159 41.2294 42.2178 41.5316 42.8681 41.8282C43.5186 42.1248 44.0807 42.4328 44.5541 42.7522C45.0278 43.0716 45.4016 43.4194 45.6756 43.7959C45.9494 44.1722 46.0862 44.6 46.0862 45.0792C46.0862 45.4327 46.0008 45.7607 45.8296 46.0629C45.6584 46.3653 45.3988 46.6276 45.0506 46.8501C44.7027 47.0726 44.2689 47.2464 43.7497 47.3718C43.2304 47.4975 42.6228 47.5602 41.9268 47.5602C40.7399 47.5602 39.5645 47.352 38.4004 46.9356C37.2364 46.5193 36.158 45.8947 35.1651 45.062ZM25.9604 31.5714H32.9843V27.0782H13.4062V31.5714H20.3961V51.5782H25.9604V31.5714Z" fill="white"/>
</g>
</g>
<defs>
<clipPath id="clip0_2_773">
<rect width="56" height="56" fill="white" transform="translate(0.5 0.5)"/>
</clipPath>
</defs>
</svg>
